<svg xmlns="http://www.w3.org/2000/svg" data-name="Layer 1" fill="#29b867" viewBox="0 0 100 125" x="0px" y="0px"><defs><style>.cls-1{fill-rule:evenodd;}</style></defs><title>a</title><path class="cls-1" d="M93.819,52.9H71.731a.108.108,0,0,0-.1.1V91.928a.11.11,0,0,0,.1.1H93.819a.11.11,0,0,0,.1-.1V53a.108.108,0,0,0-.1-.1ZM86.352,50.42v-2.8H79.2v2.8ZM74.905,62.885h15.74a1.238,1.238,0,0,1,1.238,1.237V88.187a1.238,1.238,0,0,1-1.238,1.237H74.905a1.237,1.237,0,0,1-1.238-1.237V64.122a1.237,1.237,0,0,1,1.238-1.237ZM76.142,68.9V65.359H89.408V68.9Zm0,6.016V71.376H89.408v3.541Zm13.266,8.491v3.541H76.142V83.408ZM76.142,80.933V77.392H89.408v3.541ZM47.475,88.4H16.806v3.666H47.475V88.4Zm-10.95-6.348h-8.77v3.873h8.77V82.054Zm8.8-24.042h9.8l-1.18-8.263H44.756l.569,8.263Zm-11.948,0h9.471l-.568-8.263h-8.9v8.263Zm-12.154,0H30.9V49.749h-8.93l-.75,8.263Zm-12.065,0h9.59l.749-8.263H10.338l-1.18,8.263ZM17.55,71.224H7.271L6.077,79.58H16.792l.758-8.356Zm13.353,0H20.025l-.757,8.356H30.9V71.224Zm12.854,0H33.377V79.58H44.332l-.575-8.356Zm13.252,0H46.234l.575,8.356H58.2l-1.194-8.356ZM46.064,68.749H56.656l-1.18-8.262H45.5l.569,8.262Zm-12.687,0h10.21l-.568-8.262H33.377v8.262Zm-13.127,0H30.9V60.487H21l-.749,8.262Zm-12.626,0h10.15l.749-8.262H8.8l-1.18,8.262ZM23.791,16.27a8.74,8.74,0,1,1-6.181,2.56,8.715,8.715,0,0,1,6.181-2.56Zm7.436-1.67a1.234,1.234,0,0,1-2.136-1.237l1.553-2.69A1.234,1.234,0,1,1,32.78,11.91L31.227,14.6Zm4.207,5.111a1.232,1.232,0,1,1-1.227-2.136L36.9,16.022a1.232,1.232,0,1,1,1.228,2.136l-2.69,1.553Zm1.093,6.537a1.238,1.238,0,1,1,0-2.475h3.106a1.238,1.238,0,0,1,0,2.475Zm-2.32,6.2a1.232,1.232,0,1,1,1.227-2.136l2.69,1.552A1.232,1.232,0,1,1,36.9,34l-2.689-1.553Zm-5.116,4.212a1.234,1.234,0,1,1,2.136-1.237l1.553,2.69a1.234,1.234,0,0,1-2.136,1.237l-1.553-2.69Zm-6.538,1.088a1.238,1.238,0,1,1,2.475,0v3.106a1.238,1.238,0,0,1-2.475,0V37.747Zm-6.2-2.325a1.234,1.234,0,1,1,2.136,1.237l-1.553,2.69A1.234,1.234,0,0,1,14.8,38.112l1.553-2.69Zm-4.208-5.111a1.232,1.232,0,1,1,1.228,2.136L10.685,34a1.232,1.232,0,1,1-1.227-2.137l2.689-1.552Zm-1.092-6.538a1.238,1.238,0,0,1,0,2.475H7.949a1.238,1.238,0,0,1,0-2.475Zm2.325-6.2a1.234,1.234,0,0,1-1.237,2.136l-2.69-1.553a1.234,1.234,0,1,1,1.237-2.136l2.69,1.553Zm5.111-4.212A1.234,1.234,0,0,1,16.355,14.6L14.8,11.91a1.234,1.234,0,1,1,2.136-1.237l1.553,2.69Zm6.537-1.088a1.238,1.238,0,0,1-2.475,0V9.169a1.238,1.238,0,0,1,2.475,0Z"/></svg>